<?xml version="1.0" encoding="UTF-8" standalone="no"?>
<!-- Created with Inkscape (http://www.inkscape.org/) -->

<svg
   xmlns:dc="http://purl.org/dc/elements/1.1/"
   xmlns:cc="http://creativecommons.org/ns#"
   xmlns:rdf="http://www.w3.org/1999/02/22-rdf-syntax-ns#"
   xmlns:svg="http://www.w3.org/2000/svg"
   xmlns="http://www.w3.org/2000/svg"
   xmlns:xlink="http://www.w3.org/1999/xlink"
   xmlns:sodipodi="http://sodipodi.sourceforge.net/DTD/sodipodi-0.dtd"
   xmlns:inkscape="http://www.inkscape.org/namespaces/inkscape"
   width="50mm"
   height="50mm"
   viewBox="0 0 177.16535 177.16535"
   id="svg4263"
   version="1.1"
   inkscape:version="0.91 r13725"
   sodipodi:docname="logo-bandera.svg"
   inkscape:export-filename="/home/atree/Desktop/logo-bandera2.png"
   inkscape:export-xdpi="334.15442"
   inkscape:export-ydpi="334.15442">
  <defs
     id="defs4265">
    <linearGradient
       inkscape:collect="always"
       xlink:href="#linearGradient4689"
       id="linearGradient1478"
       gradientUnits="userSpaceOnUse"
       gradientTransform="matrix(-0.562541,0,0,-0.567972,131.74384,130.48843)"
       x1="26.648937"
       y1="20.603781"
       x2="135.66525"
       y2="114.39767" />
    <linearGradient
       id="linearGradient4689">
      <stop
         id="stop4211"
         offset="0"
         style="stop-color:#5a9fd4;stop-opacity:1;" />
      <stop
         id="stop4213"
         offset="1"
         style="stop-color:#306998;stop-opacity:1;" />
    </linearGradient>
    <linearGradient
       inkscape:collect="always"
       xlink:href="#linearGradient4215"
       id="linearGradient4217"
       gradientUnits="userSpaceOnUse"
       gradientTransform="matrix(-0.562541,0,0,-0.567972,131.74384,130.48843)"
       x1="26.648937"
       y1="20.603781"
       x2="139.8067"
       y2="132.44582" />
    <linearGradient
       id="linearGradient4215">
      <stop
         style="stop-color:#f42323;stop-opacity:1"
         offset="0"
         id="stop4691" />
      <stop
         style="stop-color:#985030;stop-opacity:1"
         offset="1"
         id="stop4693" />
    </linearGradient>
    <linearGradient
       inkscape:collect="always"
       xlink:href="#linearGradient4689"
       id="linearGradient4207"
       gradientUnits="userSpaceOnUse"
       gradientTransform="matrix(-0.562541,0,0,-0.567972,131.74384,130.48844)"
       x1="150.96111"
       y1="192.35176"
       x2="112.03144"
       y2="137.27299" />
    <linearGradient
       inkscape:collect="always"
       xlink:href="#linearGradient4671"
       id="linearGradient1475"
       gradientUnits="userSpaceOnUse"
       gradientTransform="matrix(-0.562541,0,0,-0.567972,131.74384,130.48844)"
       x1="150.96111"
       y1="192.35176"
       x2="112.03144"
       y2="137.27299" />
    <linearGradient
       id="linearGradient4671">
      <stop
         style="stop-color:#ffd43b;stop-opacity:1;"
         offset="0"
         id="stop4673" />
      <stop
         style="stop-color:#ffe873;stop-opacity:1"
         offset="1"
         id="stop4675" />
    </linearGradient>
    <radialGradient
       inkscape:collect="always"
       xlink:href="#linearGradient2795"
       id="radialGradient1480"
       gradientUnits="userSpaceOnUse"
       gradientTransform="matrix(2.382716e-8,-0.296405,1.43676,4.683673e-7,-128.544,150.5202)"
       cx="61.518883"
       cy="132.28575"
       fx="61.518883"
       fy="132.28575"
       r="29.036913" />
    <linearGradient
       id="linearGradient2795">
      <stop
         style="stop-color:#b8b8b8;stop-opacity:0.49803922;"
         offset="0"
         id="stop2797" />
      <stop
         style="stop-color:#7f7f7f;stop-opacity:0;"
         offset="1"
         id="stop2799" />
    </linearGradient>
  </defs>
  <sodipodi:namedview
     id="base"
     pagecolor="#ffffff"
     bordercolor="#666666"
     borderopacity="1.0"
     inkscape:pageopacity="0.0"
     inkscape:pageshadow="2"
     inkscape:zoom="1.8435694"
     inkscape:cx="12.152851"
     inkscape:cy="82.962963"
     inkscape:document-units="px"
     inkscape:current-layer="layer1"
     showgrid="false"
     units="mm"
     width="20mm"
     inkscape:window-width="1366"
     inkscape:window-height="718"
     inkscape:window-x="0"
     inkscape:window-y="21"
     inkscape:window-maximized="1" />
  <metadata
     id="metadata4268">
    <rdf:RDF>
      <cc:Work
         rdf:about="">
        <dc:format>image/svg+xml</dc:format>
        <dc:type
           rdf:resource="http://purl.org/dc/dcmitype/StillImage" />
        <dc:title></dc:title>
      </cc:Work>
    </rdf:RDF>
  </metadata>
  <g
     inkscape:label="Layer 1"
     inkscape:groupmode="layer"
     id="layer1"
     transform="translate(0,-875.19685)">
    <g
       transform="translate(24.542194,890.05964)"
       id="g4219">
      <path
         inkscape:connector-curvature="0"
         id="path3402"
         d="m 114.35742,47.851562 c -2.10735,-7.125037 -6.46013,-12.160154 -13.74219,-12.160156 l -9.218746,0 0,12.25 c 0,8.849902 -7.657144,16.656248 -16.75,16.65625 l -26.78125,0 c -7.454951,0 -13.406253,6.138164 -13.40625,13.625 l 0,25.531254 c 0,1.88889 0.446586,3.63655 1.1875,5.23828 0.0097,-0.01 0.01959,-0.0215 0.0293,-0.0312 4.306375,-4.33823 8.540784,-8.43315 12.69336,-12.298831 4.152575,-3.865681 8.224103,-7.501759 12.199218,-10.919921 3.975116,-3.418163 7.854913,-6.619565 11.628907,-9.615235 3.773993,-2.995669 7.441024,-5.786562 10.990234,-8.384765 7.09842,-5.196408 13.723931,-9.622205 19.781247,-13.378907 4.21335,-2.613087 7.75668,-4.513082 11.38867,-6.511719 z"
         style="fill:url(#linearGradient1478);fill-opacity:1" />
      <path
         inkscape:connector-curvature="0"
         id="path1948"
         d="m 114.35742,47.851562 c -3.63199,1.998637 -7.17532,3.898632 -11.38867,6.511719 -6.057319,3.756702 -12.68283,8.182499 -19.78125,13.378907 -3.54921,2.598203 -7.216241,5.389096 -10.990234,8.384765 -3.773994,2.99567 -7.653791,6.197072 -11.628907,9.615235 -3.975115,3.418162 -8.046643,7.05424 -12.199218,10.919921 -4.152576,3.865681 -8.386985,7.960601 -12.69336,12.298831 -0.0097,0.01 -0.01959,0.0215 -0.0293,0.0312 2.1093,4.55994 6.833951,7.80174 12.21875,8.69922 4.605987,0.76672 9.385097,1.11505 13.96875,1.09375 4.583653,-0.0213 8.960939,-0.41222 12.8125,-1.09375 11.346216,-2.00451 13.406249,-6.2001 13.40625,-13.9375 l 0,-10.218754 -26.8125,0 0,-3.40625 26.8125,0 10.0625,0 c 7.792459,0 14.615759,-4.683717 16.749999,-13.59375 2.46182,-10.212966 2.57102,-16.586023 0,-27.25 -0.12483,-0.519931 -0.3601,-0.934191 -0.50781,-1.433594 z M 76.333984,100.34766 c 2.779476,0 5.03125,2.27741 5.03125,5.09375 10e-7,2.82635 -2.251774,5.125 -5.03125,5.125 -2.769547,0 -5.03125,-2.29865 -5.03125,-5.125 2e-6,-2.81634 2.261703,-5.09375 5.03125,-5.09375 z"
         style="fill:url(#linearGradient4217);fill-opacity:1" />
      <path
         inkscape:connector-curvature="0"
         id="path3405"
         d="m 88.052734,23.394531 c -3.758314,2.05754 -7.479818,4.061721 -11.871093,6.785157 -6.057319,3.756702 -12.680877,8.184451 -19.779297,13.380859 -3.54921,2.598204 -7.218194,5.389096 -10.992188,8.384765 -3.773993,2.99567 -7.653791,6.19512 -11.628906,9.613282 -3.975115,3.418162 -8.04469,7.05424 -12.197266,10.919922 -3.674631,3.420757 -7.438243,7.095106 -11.234375,10.884765 2.23835,4.0308 5.499266,6.765625 10.703125,6.765625 l 10.0625,0 0,-11.90625 c 0,-9.230763 7.825895,-16.999999 16.75,-17 l 26.78125,0 c 7.33583,0 13.40625,-6.278483 13.40625,-13.625 l 0,-24.203125 z"
         style="fill:url(#linearGradient4207);fill-opacity:1" />
      <path
         inkscape:connector-curvature="0"
         id="path1950"
         d="M 61.880859,6.4003906 C 57.515839,6.3440131 52.942741,6.9680913 47.865234,8.4414062 41.115079,10.395796 34.458981,14.329016 34.458984,22.066406 l 0,10.21875 26.78125,0 0,3.40625 -26.78125,0 -13.40625,0 c -7.79246,0 -10.69626,5.435408 -13.4062496,13.59375 -2.79933,8.398886 -2.68022,16.475768 0,27.25 0.6413641,2.583548 1.5854208,4.815374 2.7031246,6.828125 3.796132,-3.789659 7.559744,-7.464008 11.234375,-10.884765 4.152576,-3.865682 8.222151,-7.50176 12.197266,-10.919922 3.975115,-3.418162 7.854913,-6.617612 11.628906,-9.613282 3.773994,-2.995669 7.442978,-5.786561 10.992188,-8.384765 7.09842,-5.196408 13.721978,-9.624157 19.779297,-13.380859 4.391275,-2.723436 8.112779,-4.727617 11.871093,-6.785157 l 0,-1.328125 c 0,-7.26634 -6.31859,-11.54032 -13.40625,-13.6249998 C 70.402816,7.1936013 66.24588,6.4567681 61.880859,6.4003906 Z M 46.177734,15.253906 c 2.76955,0 5.03125,2.29865 5.03125,5.125 -2e-6,2.81633 -2.261697,5.09375 -5.03125,5.09375 -2.779478,-3e-6 -5.03125,-2.27742 -5.03125,-5.09375 2e-6,-2.82635 2.251775,-5.125 5.03125,-5.125 z"
         style="fill:url(#linearGradient1475);fill-opacity:1" />
      <ellipse
         ry="8.6066771"
         rx="48.948284"
         cy="132.28575"
         cx="61.518883"
         transform="matrix(0.73406,0,0,0.809524,16.24958,27.00935)"
         id="path1894"
         style="opacity:0.44382025;fill:url(#radialGradient1480);fill-opacity:1;fill-rule:nonzero;stroke:none;stroke-width:20;stroke-miterlimit:4;stroke-dasharray:none;stroke-opacity:1" />
    </g>
  </g>
</svg>
